<svg width="512" height="512" viewBox="0 0 512 512" fill="none" xmlns="http://www.w3.org/2000/svg">
  <circle cx="256" cy="256" r="256" fill="#0AA63F"/>
  <path d="M128 320V188H168L208 270V188H246V320H208L166 236V320H128Z" fill="#FFFFFF"/>
  <rect x="220" y="158" width="74" height="196" rx="12" fill="#A6D87F"/>
  <rect x="244" y="178" width="26" height="10" rx="4" fill="#0B7F32"/>
  <path d="M197 258C224 246 239 236 255 219C263 233 272 242 296 248C272 266 245 277 206 280L197 258Z" fill="#FF1C1C"/>
  <path d="M304 320V188H356C384 188 402 202 402 227C402 252 384 266 356 266H340V320H304ZM340 238H354C362 238 366 234 366 227C366 220 362 216 354 216H340V238Z" fill="#FFFFFF"/>
  <path d="M412 320V188H486V216H448V238H482V266H448V292H486V320H412Z" fill="#FFFFFF"/>
</svg>
